<?xml version="1.0" encoding="UTF-8" standalone="no"?>
<svg width="24px" height="24px" viewBox="0 0 24 24" version="1.1" xmlns="http://www.w3.org/2000/svg" xmlns:xlink="http://www.w3.org/1999/xlink">
    <!-- Generator: Sketch 42 (36781) - http://www.bohemiancoding.com/sketch -->
    <title>ic_heart</title>
    <desc>Created with Sketch.</desc>
    <defs></defs>
    <g id="Page-1" stroke="none" stroke-width="1" fill="none" fill-rule="evenodd">
        <g id="Desktop-HD" transform="translate(-516.000000, -218.000000)">
            <g id="ic_heart" transform="translate(516.000000, 218.000000)">
                <rect id="Rectangle-4-Copy-2" fill="#34373D" x="0" y="0" width="24" height="24" rx="12"></rect>
                <path d="M12.2946504,17.1651907 L16.4665303,13.1473288 C16.5267983,13.0870608 18.0000143,11.7410771 18.0000143,10.1339323 C18.0000143,8.1718764 16.8013522,7 14.7991176,7 C13.6272412,7 12.5290256,7.92410824 12.0000072,8.4464303 C11.4709887,7.92410824 10.3727731,7 9.20089667,7 C7.19866214,7 6,8.1718764 6,10.1339323 C6,11.7410771 7.47321604,13.0870608 7.52678753,13.1339359 L11.7053639,17.1651907 C11.7857212,17.2455479 11.8928642,17.2857265 12.0000072,17.2857265 C12.1071501,17.2857265 12.2142931,17.2455479 12.2946504,17.1651907 Z" id="" fill="#FFFFFF"></path>
            </g>
        </g>
    </g>
</svg>