<?xml version="1.0" encoding="UTF-8" standalone="no"?>
<svg width="24px" height="24px" viewBox="0 0 24 24" version="1.1" xmlns="http://www.w3.org/2000/svg" xmlns:xlink="http://www.w3.org/1999/xlink">
    <!-- Generator: Sketch 42 (36781) - http://www.bohemiancoding.com/sketch -->
    <title>ic_time</title>
    <desc>Created with Sketch.</desc>
    <defs></defs>
    <g id="Page-1" stroke="none" stroke-width="1" fill="none" fill-rule="evenodd">
        <g id="Desktop-HD" transform="translate(-554.000000, -218.000000)">
            <g id="ic_time" transform="translate(554.000000, 218.000000)">
                <rect id="Rectangle-4-Copy-3" fill="#34373D" x="0" y="0" width="24" height="24" rx="12"></rect>
                <path d="M13.0000083,9.25000387 C13.0000083,9.10937871 12.8906332,9.00000358 12.750008,9.00000358 L12.2500075,9.00000358 C12.1093823,9.00000358 12.0000072,9.10937871 12.0000072,9.25000387 L12.0000072,12.0000072 L10.2500051,12.0000072 C10.1093799,12.0000072 10.0000048,12.1093823 10.0000048,12.2500075 L10.0000048,12.750008 C10.0000048,12.8906332 10.1093799,13.0000083 10.2500051,13.0000083 L12.750008,13.0000083 C12.8906332,13.0000083 13.0000083,12.8906332 13.0000083,12.750008 L13.0000083,9.25000387 Z M16.2500122,12.0000072 C16.2500122,14.3437599 14.3437599,16.2500122 12.0000072,16.2500122 C9.65625436,16.2500122 7.75000209,14.3437599 7.75000209,12.0000072 C7.75000209,9.65625436 9.65625436,7.75000209 12.0000072,7.75000209 C14.3437599,7.75000209 16.2500122,9.65625436 16.2500122,12.0000072 L16.2500122,12.0000072 Z M18.0000143,12.0000072 C18.0000143,8.6875032 15.3125111,6 12.0000072,6 C8.6875032,6 6,8.6875032 6,12.0000072 C6,15.3125111 8.6875032,18.0000143 12.0000072,18.0000143 C15.3125111,18.0000143 18.0000143,15.3125111 18.0000143,12.0000072 L18.0000143,12.0000072 Z" id="" fill="#FFFFFF"></path>
            </g>
        </g>
    </g>
</svg>