<?xml version="1.0" encoding="UTF-8" standalone="no"?>
<svg width="15px" height="15px" viewBox="0 0 15 15" version="1.1" xmlns="http://www.w3.org/2000/svg" xmlns:xlink="http://www.w3.org/1999/xlink">
    <!-- Generator: Sketch 42 (36781) - http://www.bohemiancoding.com/sketch -->
    <title></title>
    <desc>Created with Sketch.</desc>
    <defs></defs>
    <g id="Page-1" stroke="none" stroke-width="1" fill="none" fill-rule="evenodd">
        <g id="Desktop-HD" transform="translate(-484.000000, -115.000000)" fill="#34373D">
            <g id="Group-4" transform="translate(479.000000, 36.000000)">
                <g id="locationArrow" transform="translate(2.000000, 76.000000)">
                    <path d="M17.0725446,4.07700893 L10.6439732,16.9341518 C10.5301334,17.168528 10.3392871,17.2857143 10.0714286,17.2857143 C10.0379463,17.2857143 9.98772355,17.2790179 9.92075893,17.265625 C9.77343676,17.2321427 9.65457634,17.1568086 9.56417411,17.0396205 C9.47377187,16.9224324 9.42857143,16.7901793 9.42857143,16.6428571 L9.42857143,10.8571429 L3.64285714,10.8571429 C3.49553498,10.8571429 3.36328184,10.8119424 3.24609375,10.7215402 C3.12890566,10.6311379 3.0535716,10.5122775 3.02008929,10.3649554 C2.98660698,10.2176332 2.9999997,10.0770096 3.06026786,9.94308036 C3.12053602,9.80915112 3.21763326,9.70870569 3.3515625,9.64174107 L16.2087054,3.21316964 C16.2957594,3.16629441 16.3928566,3.14285714 16.5,3.14285714 C16.6808045,3.14285714 16.8314726,3.20647258 16.9520089,3.33370536 C17.0524559,3.42745583 17.1143972,3.54296806 17.1378348,3.68024554 C17.1612724,3.81752301 17.1395093,3.94977615 17.0725446,4.07700893 Z" id=""></path>
                </g>
            </g>
        </g>
    </g>
</svg>