<?xml version="1.0" encoding="UTF-8" standalone="no"?>
<svg width="17px" height="18px" viewBox="0 0 17 18" version="1.1" xmlns="http://www.w3.org/2000/svg" xmlns:xlink="http://www.w3.org/1999/xlink">
    <!-- Generator: Sketch 42 (36781) - http://www.bohemiancoding.com/sketch -->
    <title></title>
    <desc>Created with Sketch.</desc>
    <defs></defs>
    <g id="Page-1" stroke="none" stroke-width="1" fill="none" fill-rule="evenodd">
        <g id="Desktop-HD" transform="translate(-233.000000, -227.000000)" fill="#FFFFFF">
            <g id="Group-2" transform="translate(220.000000, 36.000000)">
                <path d="M24.5714286,198.928571 C24.5714286,197.689726 24.1311428,196.630027 23.250558,195.749442 C22.3699733,194.868857 21.3102741,194.428571 20.0714286,194.428571 C18.8325831,194.428571 17.7728839,194.868857 16.8922991,195.749442 C16.0117143,196.630027 15.5714286,197.689726 15.5714286,198.928571 C15.5714286,200.167417 16.0117143,201.227116 16.8922991,202.107701 C17.7728839,202.988286 18.8325831,203.428571 20.0714286,203.428571 C21.3102741,203.428571 22.3699733,202.988286 23.250558,202.107701 C24.1311428,201.227116 24.5714286,200.167417 24.5714286,198.928571 Z M29.7142857,207.285714 C29.7142857,207.63393 29.5870548,207.935267 29.3325893,208.189732 C29.0781237,208.444198 28.7767875,208.571429 28.4285714,208.571429 C28.0669625,208.571429 27.7656262,208.444198 27.5245536,208.189732 L24.0792411,204.754464 C22.8805744,205.584826 21.5446502,206 20.0714286,206 C19.1138345,206 18.198107,205.814176 17.3242188,205.442522 C16.4503305,205.070869 15.6969898,204.568642 15.0641741,203.935826 C14.4313584,203.30301 13.9291313,202.54967 13.5574777,201.675781 C13.185824,200.801893 13,199.886166 13,198.928571 C13,197.970977 13.185824,197.05525 13.5574777,196.181362 C13.9291313,195.307473 14.4313584,194.554133 15.0641741,193.921317 C15.6969898,193.288501 16.4503305,192.786274 17.3242188,192.414621 C18.198107,192.042967 19.1138345,191.857143 20.0714286,191.857143 C21.0290226,191.857143 21.9447501,192.042967 22.8186384,192.414621 C23.6925267,192.786274 24.4458674,193.288501 25.078683,193.921317 C25.7114987,194.554133 26.2137258,195.307473 26.5853795,196.181362 C26.9570331,197.05525 27.1428571,197.970977 27.1428571,198.928571 C27.1428571,200.401793 26.7276827,201.737717 25.8973214,202.936384 L29.3426339,206.381696 C29.590403,206.629466 29.7142857,206.930802 29.7142857,207.285714 Z" id=""></path>
            </g>
        </g>
    </g>
</svg>