<?xml version="1.0" encoding="UTF-8" standalone="no"?>
<svg width="21px" height="20px" viewBox="0 0 21 20" version="1.1" xmlns="http://www.w3.org/2000/svg" xmlns:xlink="http://www.w3.org/1999/xlink">
    <!-- Generator: Sketch 42 (36781) - http://www.bohemiancoding.com/sketch -->
    <title>Path</title>
    <desc>Created with Sketch.</desc>
    <defs></defs>
    <g id="Page-1" stroke="none" stroke-width="1" fill="none" fill-rule="evenodd">
        <g id="Desktop-HD" transform="translate(-576.000000, -79.000000)" fill="#F49831">
            <g id="Group-4" transform="translate(479.000000, 36.000000)">
                <path d="M117.892857,51.0859375 C117.892857,51.2659979 117.786459,51.4624245 117.573661,51.6752232 L113.117188,56.0212054 L114.172991,62.1595982 C114.181176,62.2168902 114.185268,62.2987346 114.185268,62.4051339 C114.185268,62.5770098 114.1423,62.7222836 114.056362,62.8409598 C113.970424,62.959636 113.845611,63.0189732 113.68192,63.0189732 C113.526413,63.0189732 113.362724,62.9698666 113.190848,62.8716518 L107.678571,59.9743304 L102.166295,62.8716518 C101.986234,62.9698666 101.822545,63.0189732 101.675223,63.0189732 C101.503347,63.0189732 101.374442,62.959636 101.288504,62.8409598 C101.202567,62.7222836 101.159598,62.5770098 101.159598,62.4051339 C101.159598,62.3560265 101.167783,62.2741821 101.184152,62.1595982 L102.239955,56.0212054 L97.7712054,51.6752232 C97.5665912,51.45424 97.4642857,51.2578134 97.4642857,51.0859375 C97.4642857,50.7831086 97.6934501,50.5948664 98.1517857,50.5212054 L104.314732,49.625 L107.077009,44.0390625 C107.232516,43.7034953 107.433034,43.5357143 107.678571,43.5357143 C107.924108,43.5357143 108.124627,43.7034953 108.280134,44.0390625 L111.042411,49.625 L117.205357,50.5212054 C117.663693,50.5948664 117.892857,50.7831086 117.892857,51.0859375 Z" id="Path"></path>
            </g>
        </g>
    </g>
</svg>